<?xml version="1.0" encoding="utf-8"?>
<!-- Generator: Adobe Illustrator 28.0.0, SVG Export Plug-In . SVG Version: 6.00 Build 0)  -->
<svg version="1.1" id="レイヤー_1" xmlns="http://www.w3.org/2000/svg" xmlns:xlink="http://www.w3.org/1999/xlink" x="0px"
	 y="0px" viewBox="0 0 180 180" style="enable-background:new 0 0 180 180;" xml:space="preserve">
<style type="text/css">
	.st0{fill:#FFFFFF;stroke:#000000;stroke-width:0.25;stroke-miterlimit:10;}
	.st1{fill:none;}
	.st2{fill:url(#SVGID_1_);}
	.st3{fill:url(#SVGID_00000071550274326565447830000009379467454396050861_);}
	.st4{fill:url(#SVGID_00000062158280235150805770000004195628625578841476_);}
	.st5{fill:url(#SVGID_00000036223361228275982270000012577507888495144846_);}
	.st6{fill:url(#SVGID_00000078018996566106473970000013590968063907342765_);}
	.st7{fill:url(#SVGID_00000099664538383776417520000002089994820420808636_);}
	.st8{fill:url(#SVGID_00000090254751242664494330000017005986642655124136_);}
	.st9{fill:url(#SVGID_00000133497835482920377730000010224062514370396803_);}
	.st10{fill:url(#SVGID_00000124120160581350482690000012522945822995316660_);}
	.st11{fill:url(#SVGID_00000110434244405507568300000011767016637863871135_);}
	.st12{fill:url(#SVGID_00000166644430809085269850000002607105959171869092_);}
	.st13{fill:url(#SVGID_00000126311985154988542730000009535671226147617414_);}
</style>
<rect class="st0" width="180" height="180"/>
<rect x="-247.85" y="86.05" class="st1" width="32" height="32"/>
<g>
	<linearGradient id="SVGID_1_" gradientUnits="userSpaceOnUse" x1="112.2283" y1="113.2121" x2="112.2283" y2="62.6971">
		<stop  offset="0" style="stop-color:#01538B"/>
		<stop  offset="0.252" style="stop-color:#467EA5"/>
		<stop  offset="0.2945" style="stop-color:#6C82A0"/>
		<stop  offset="0.408" style="stop-color:#AE8A93"/>
		<stop  offset="0.503" style="stop-color:#D38E88"/>
		<stop  offset="0.5748" style="stop-color:#E88F81"/>
		<stop  offset="0.6151" style="stop-color:#EF8F7E"/>
		<stop  offset="0.7058" style="stop-color:#ED7B64"/>
		<stop  offset="0.8291" style="stop-color:#EB6448"/>
		<stop  offset="0.9316" style="stop-color:#EA5539"/>
		<stop  offset="1" style="stop-color:#EA4F34"/>
	</linearGradient>
	<path class="st2" d="M129.66,93.74c-2.98,0.04-5.96,0.04-8.97,0.03l-3.57-0.01c-0.99,0-1.91-0.74-1.9-1.73c0.01-1.37,0-2.71,0-3.95
		c0-1.43,1.18-2.09,2-2.09c1.66,0,6.47-0.07,8.08-0.07h0.02c-0.72-3.75-2.7-6.56-6.02-8.55c-4.57-2.74-9.18-2.84-13.71-0.3
		c-4.63,2.6-6.95,6.57-6.91,11.82c0.04,5.25,2.41,9.21,7.06,11.75c4.51,2.47,9.13,2.32,13.72-0.44c0.83-0.5,0.99-0.6,1.61-1.09
		c1.52-1.21,2.4-1.46,3.43-0.43c0.66,0.66,1.44,1.59,2.54,2.88c0.9,1.05,0.57,1.89-0.14,2.58c-2.83,2.78-6.23,4.62-10.11,5.47
		c-1.54,0.34-3.09,0.51-4.64,0.51c-4.1,0-8.13-1.18-11.67-3.48c-4.78-3.1-8.04-7.83-9.17-13.32c-1.2-5.8-0.08-11.64,3.16-16.45
		c3.23-4.79,8.19-8.02,13.97-9.09c6.25-1.15,12.65,0.63,17.59,4.88c5,4.3,7.74,10.48,7.53,16.94
		C133.48,92.61,131.49,93.71,129.66,93.74z"/>
	
		<linearGradient id="SVGID_00000077299201766229579760000009473946280270374589_" gradientUnits="userSpaceOnUse" x1="112.2283" y1="145.633" x2="112.2283" y2="42.7727">
		<stop  offset="0" style="stop-color:#01538B"/>
		<stop  offset="0.252" style="stop-color:#467EA5"/>
		<stop  offset="0.2945" style="stop-color:#6C82A0"/>
		<stop  offset="0.408" style="stop-color:#AE8A93"/>
		<stop  offset="0.503" style="stop-color:#D38E88"/>
		<stop  offset="0.5748" style="stop-color:#E88F81"/>
		<stop  offset="0.6151" style="stop-color:#EF8F7E"/>
		<stop  offset="0.7058" style="stop-color:#ED7B64"/>
		<stop  offset="0.8291" style="stop-color:#EB6448"/>
		<stop  offset="0.9316" style="stop-color:#EA5539"/>
		<stop  offset="1" style="stop-color:#EA4F34"/>
	</linearGradient>
	<path style="fill:url(#SVGID_00000077299201766229579760000009473946280270374589_);" d="M126.05,72.65
		c-4.94-4.25-11.34-6.03-17.59-4.88c-5.79,1.07-10.75,4.29-13.97,9.09c-3.24,4.81-4.36,10.65-3.16,16.45
		c1.13,5.49,4.39,10.22,9.17,13.32c3.54,2.3,7.56,3.48,11.67,3.48c1.54,0,3.09-0.17,4.64-0.51c3.87-0.85,7.27-2.69,10.11-5.47
		c0.71-0.69,1.03-1.53,0.14-2.58c-1.1-1.28-1.88-2.22-2.54-2.88c-1.03-1.03-1.9-0.78-3.43,0.43c-0.63,0.5-0.79,0.6-1.61,1.09
		c-4.59,2.76-9.21,2.91-13.72,0.44c-4.65-2.54-7.02-6.5-7.06-11.75c-0.04-5.24,2.29-9.22,6.91-11.82c4.52-2.54,9.13-2.44,13.71,0.3
		c3.32,1.99,5.3,4.8,6.02,8.55h-0.02c-1.61,0-6.42,0.07-8.08,0.07c-0.82,0-2,0.66-2,2.09c0,1.24,0.01,2.59,0,3.95
		c-0.01,0.99,0.92,1.73,1.9,1.73l3.57,0.01c3.02,0.01,6,0.01,8.97-0.03c1.83-0.03,3.82-1.13,3.92-4.15
		C133.8,83.13,131.05,76.96,126.05,72.65z"/>
	
		<linearGradient id="SVGID_00000158717315265117999030000011673342741790677175_" gradientUnits="userSpaceOnUse" x1="90" y1="145.633" x2="90" y2="42.7727">
		<stop  offset="0" style="stop-color:#01538B"/>
		<stop  offset="0.252" style="stop-color:#467EA5"/>
		<stop  offset="0.2945" style="stop-color:#6C82A0"/>
		<stop  offset="0.408" style="stop-color:#AE8A93"/>
		<stop  offset="0.503" style="stop-color:#D38E88"/>
		<stop  offset="0.5748" style="stop-color:#E88F81"/>
		<stop  offset="0.6151" style="stop-color:#EF8F7E"/>
		<stop  offset="0.7058" style="stop-color:#ED7B64"/>
		<stop  offset="0.8291" style="stop-color:#EB6448"/>
		<stop  offset="0.9316" style="stop-color:#EA5539"/>
		<stop  offset="1" style="stop-color:#EA4F34"/>
	</linearGradient>
	<path style="fill:url(#SVGID_00000158717315265117999030000011673342741790677175_);" d="M131.37,139.13v-7.68
		c0-0.06,0.05-0.1,0.1-0.1h3.95c7.62,0,13.8-6.18,13.8-13.8V60.02c0-7.63-6.18-13.81-13.81-13.81H44.57c-7.62,0-13.8,6.18-13.8,13.8
		v57.53c0,7.63,6.18,13.81,13.81,13.81h62.7c0.03,0,0.05,0.01,0.07,0.03l13.61,12.61c1.17,1.08,2.68,1.65,4.21,1.65
		c1.22,0,2.46-0.36,3.55-1.12C130.46,143.32,131.37,141.24,131.37,139.13z M125.17,125.25v13.95c0,0.09-0.11,0.14-0.17,0.08
		l-15.22-14.1c-0.02-0.02-0.04-0.03-0.07-0.03H44.57c-4.18,0-7.6-3.42-7.6-7.6v-41.7c0-0.11,0.14-0.14,0.19-0.05l14.43,24.04
		c0.75,1.25,1.96,2.91,3.85,2.91c0,0,0,0,0.01,0c1.88,0,3.1-1.64,3.85-2.88L73.04,77.2c0.05-0.08,0.17-0.06,0.19,0.03l1.98,9.44
		c1.87,8.91,3.74,17.83,5.6,26.75c0.22,1.07,0.47,2.34,1.11,2.93c0.71,0.66,1.86,0.58,2.99,0.58c0.13,0,1.68-0.02,1.68-0.02
		c1.13,0,1.83-0.15,2.21-0.57c0.74-0.82,0.32-2.34,0.32-2.34c-0.07-0.4-0.12-0.73-0.19-1.06l-1.33-6.38
		c-1.58-7.56-3.15-15.13-4.73-22.69c-0.5-2.37-1-4.74-1.5-7.11c-0.76-3.58-1.52-7.17-2.26-10.75c-0.3-1.43-0.92-2.46-1.86-3.07
		c-0.57-0.36-1.52-0.74-2.84-0.43c-1.54,0.36-2.77,1.6-3.36,2.56c-4.16,6.76-8.28,13.55-12.39,20.34l-3.08,5.08
		c-0.04,0.07-0.14,0.07-0.18,0c-1.18-1.94-2.36-3.89-3.54-5.83c-3.47-5.69-14.49-22.98-14.87-23.58c-0.01-0.02-0.01-0.03-0.01-0.05
		v-1.03c0-4.19,3.42-7.61,7.61-7.61h90.85c4.18,0,7.6,3.42,7.6,7.6v57.53c0,4.19-3.42,7.61-7.61,7.61h-10.14
		C125.22,125.15,125.17,125.19,125.17,125.25z"/>
	
		<linearGradient id="SVGID_00000126299877691928836310000003961767745757485465_" gradientUnits="userSpaceOnUse" x1="90" y1="145.633" x2="90" y2="46.2091">
		<stop  offset="0" style="stop-color:#01538B"/>
		<stop  offset="0.252" style="stop-color:#467EA5"/>
		<stop  offset="0.2945" style="stop-color:#6C82A0"/>
		<stop  offset="0.408" style="stop-color:#AE8A93"/>
		<stop  offset="0.503" style="stop-color:#D38E88"/>
		<stop  offset="0.5748" style="stop-color:#E88F81"/>
		<stop  offset="0.6151" style="stop-color:#EF8F7E"/>
		<stop  offset="0.7058" style="stop-color:#ED7B64"/>
		<stop  offset="0.8291" style="stop-color:#EB6448"/>
		<stop  offset="0.9316" style="stop-color:#EA5539"/>
		<stop  offset="1" style="stop-color:#EA4F34"/>
	</linearGradient>
	<path style="fill:url(#SVGID_00000126299877691928836310000003961767745757485465_);" d="M131.37,139.13v-7.68
		c0-0.06,0.05-0.1,0.1-0.1h3.95c7.62,0,13.8-6.18,13.8-13.8V60.02c0-7.63-6.18-13.81-13.81-13.81H44.57c-7.62,0-13.8,6.18-13.8,13.8
		v57.53c0,7.63,6.18,13.81,13.81,13.81h62.7c0.03,0,0.05,0.01,0.07,0.03l13.61,12.61c1.17,1.08,2.68,1.65,4.21,1.65
		c1.22,0,2.46-0.36,3.55-1.12C130.46,143.32,131.37,141.24,131.37,139.13z M125.17,125.25v13.95c0,0.09-0.11,0.14-0.17,0.08
		l-15.22-14.1c-0.02-0.02-0.04-0.03-0.07-0.03H44.57c-4.18,0-7.6-3.42-7.6-7.6v-41.7c0-0.11,0.14-0.14,0.19-0.05l14.43,24.04
		c0.75,1.25,1.96,2.91,3.85,2.91c0,0,0,0,0.01,0c1.88,0,3.1-1.64,3.85-2.88L73.04,77.2c0.05-0.08,0.17-0.06,0.19,0.03l1.98,9.44
		c1.87,8.91,3.74,17.83,5.6,26.75c0.22,1.07,0.47,2.34,1.11,2.93c0.71,0.66,1.86,0.58,2.99,0.58c0.13,0,1.68-0.02,1.68-0.02
		c1.13,0,1.83-0.15,2.21-0.57c0.74-0.82,0.32-2.34,0.32-2.34c-0.07-0.4-0.12-0.73-0.19-1.06l-1.33-6.38
		c-1.58-7.56-3.15-15.13-4.73-22.69c-0.5-2.37-1-4.74-1.5-7.11c-0.76-3.58-1.52-7.17-2.26-10.75c-0.3-1.43-0.92-2.46-1.86-3.07
		c-0.57-0.36-1.52-0.74-2.84-0.43c-1.54,0.36-2.77,1.6-3.36,2.56c-4.16,6.76-8.28,13.55-12.39,20.34l-3.08,5.08
		c-0.04,0.07-0.14,0.07-0.18,0c-1.18-1.94-2.36-3.89-3.54-5.83c-3.47-5.69-14.49-22.98-14.87-23.58c-0.01-0.02-0.01-0.03-0.01-0.05
		v-1.03c0-4.19,3.42-7.61,7.61-7.61h90.85c4.18,0,7.6,3.42,7.6,7.6v57.53c0,4.19-3.42,7.61-7.61,7.61h-10.14
		C125.22,125.15,125.17,125.19,125.17,125.25z"/>
</g>
<rect x="-177.35" y="14" class="st0" width="152" height="152"/>
<g>
	
		<linearGradient id="SVGID_00000031896642573876783240000010467049582372210307_" gradientUnits="userSpaceOnUse" x1="-82.5772" y1="109.6013" x2="-82.5772" y2="66.9442">
		<stop  offset="0" style="stop-color:#01538B"/>
		<stop  offset="0.252" style="stop-color:#467EA5"/>
		<stop  offset="0.2945" style="stop-color:#6C82A0"/>
		<stop  offset="0.408" style="stop-color:#AE8A93"/>
		<stop  offset="0.503" style="stop-color:#D38E88"/>
		<stop  offset="0.5748" style="stop-color:#E88F81"/>
		<stop  offset="0.6151" style="stop-color:#EF8F7E"/>
		<stop  offset="0.7058" style="stop-color:#ED7B64"/>
		<stop  offset="0.8291" style="stop-color:#EB6448"/>
		<stop  offset="0.9316" style="stop-color:#EA5539"/>
		<stop  offset="1" style="stop-color:#EA4F34"/>
	</linearGradient>
	<path style="fill:url(#SVGID_00000031896642573876783240000010467049582372210307_);" d="M-67.85,93.16
		c-2.51,0.04-5.03,0.03-7.58,0.02l-3.01-0.01c-0.83,0-1.61-0.63-1.61-1.46c0.01-1.15,0-2.29,0-3.34c0-1.2,1-1.76,1.69-1.76
		c1.41,0,5.47-0.06,6.82-0.06h0.02c-0.61-3.17-2.28-5.54-5.08-7.22c-3.86-2.32-7.75-2.4-11.57-0.26c-3.91,2.19-5.87,5.55-5.84,9.98
		c0.03,4.44,2.04,7.78,5.96,9.92c3.81,2.09,7.71,1.96,11.59-0.37c0.7-0.42,0.83-0.5,1.36-0.92c1.29-1.02,2.03-1.23,2.9-0.36
		c0.55,0.55,1.22,1.35,2.14,2.43c0.76,0.89,0.48,1.59-0.12,2.18c-2.39,2.34-5.26,3.9-8.53,4.62c-1.3,0.29-2.61,0.43-3.91,0.43
		c-3.47,0-6.86-1-9.85-2.94c-4.04-2.62-6.79-6.61-7.74-11.25c-1.01-4.9-0.06-9.83,2.67-13.89c2.72-4.05,6.91-6.77,11.8-7.67
		c5.28-0.97,10.68,0.53,14.85,4.12c4.22,3.64,6.54,8.85,6.36,14.3C-64.63,92.2-66.31,93.13-67.85,93.16z"/>
	
		<linearGradient id="SVGID_00000018952512228643182740000014688992197498083488_" gradientUnits="userSpaceOnUse" x1="-82.5772" y1="136.979" x2="-82.5772" y2="50.1192">
		<stop  offset="0" style="stop-color:#01538B"/>
		<stop  offset="0.252" style="stop-color:#467EA5"/>
		<stop  offset="0.2945" style="stop-color:#6C82A0"/>
		<stop  offset="0.408" style="stop-color:#AE8A93"/>
		<stop  offset="0.503" style="stop-color:#D38E88"/>
		<stop  offset="0.5748" style="stop-color:#E88F81"/>
		<stop  offset="0.6151" style="stop-color:#EF8F7E"/>
		<stop  offset="0.7058" style="stop-color:#ED7B64"/>
		<stop  offset="0.8291" style="stop-color:#EB6448"/>
		<stop  offset="0.9316" style="stop-color:#EA5539"/>
		<stop  offset="1" style="stop-color:#EA4F34"/>
	</linearGradient>
	<path style="fill:url(#SVGID_00000018952512228643182740000014688992197498083488_);" d="M-70.9,75.35
		c-4.17-3.59-9.57-5.09-14.85-4.12c-4.89,0.9-9.08,3.63-11.8,7.67c-2.73,4.06-3.68,8.99-2.67,13.89c0.96,4.63,3.71,8.63,7.74,11.25
		c2.99,1.94,6.39,2.94,9.85,2.94c1.3,0,2.61-0.14,3.91-0.43c3.27-0.72,6.14-2.27,8.53-4.62c0.6-0.59,0.87-1.29,0.12-2.18
		c-0.93-1.08-1.59-1.88-2.14-2.43c-0.87-0.87-1.61-0.66-2.9,0.36c-0.53,0.42-0.67,0.5-1.36,0.92c-3.88,2.33-7.78,2.46-11.59,0.37
		c-3.92-2.15-5.93-5.49-5.96-9.92c-0.03-4.43,1.93-7.78,5.84-9.98c3.82-2.14,7.71-2.06,11.57,0.26c2.8,1.68,4.48,4.05,5.08,7.22
		h-0.02c-1.36,0-5.42,0.06-6.82,0.06c-0.69,0-1.69,0.56-1.69,1.76c0,1.05,0.01,2.18,0,3.34c-0.01,0.83,0.77,1.46,1.61,1.46
		l3.01,0.01c2.55,0.01,5.06,0.01,7.58-0.02c1.54-0.02,3.22-0.96,3.31-3.51C-64.36,84.2-66.68,78.98-70.9,75.35z"/>
	
		<linearGradient id="SVGID_00000050656310947345523350000003380201678196918449_" gradientUnits="userSpaceOnUse" x1="-101.3478" y1="136.979" x2="-101.3478" y2="50.1192">
		<stop  offset="0" style="stop-color:#01538B"/>
		<stop  offset="0.252" style="stop-color:#467EA5"/>
		<stop  offset="0.2945" style="stop-color:#6C82A0"/>
		<stop  offset="0.408" style="stop-color:#AE8A93"/>
		<stop  offset="0.503" style="stop-color:#D38E88"/>
		<stop  offset="0.5748" style="stop-color:#E88F81"/>
		<stop  offset="0.6151" style="stop-color:#EF8F7E"/>
		<stop  offset="0.7058" style="stop-color:#ED7B64"/>
		<stop  offset="0.8291" style="stop-color:#EB6448"/>
		<stop  offset="0.9316" style="stop-color:#EA5539"/>
		<stop  offset="1" style="stop-color:#EA4F34"/>
	</linearGradient>
	<path style="fill:url(#SVGID_00000050656310947345523350000003380201678196918449_);" d="M-66.41,131.49V125
		c0-0.05,0.04-0.09,0.09-0.09h3.34c6.43,0,11.65-5.22,11.65-11.65V64.68c0-6.44-5.22-11.66-11.66-11.66h-76.72
		c-6.43,0-11.65,5.22-11.65,11.65v48.58c0,6.44,5.22,11.66,11.66,11.66h52.95c0.02,0,0.04,0.01,0.06,0.02l11.49,10.65
		c0.99,0.91,2.26,1.39,3.56,1.39c1.03,0,2.08-0.31,3-0.94C-67.18,135.02-66.41,133.27-66.41,131.49z M-71.65,119.77v11.78
		c0,0.08-0.09,0.12-0.15,0.06l-12.85-11.91c-0.02-0.01-0.04-0.02-0.06-0.02h-55.01c-3.53,0-6.42-2.89-6.42-6.42V78.05
		c0-0.09,0.12-0.12,0.16-0.05l12.18,20.3c0.63,1.05,1.66,2.45,3.26,2.46c0,0,0,0,0.01,0c1.59,0,2.62-1.39,3.25-2.43l11.6-19.13
		c0.04-0.07,0.14-0.05,0.16,0.03l1.67,7.97c1.58,7.53,3.16,15.06,4.73,22.58c0.19,0.9,0.4,1.98,0.94,2.48
		c0.6,0.56,1.57,0.49,2.53,0.49c0.11,0,1.42-0.01,1.42-0.01c0.96,0,1.55-0.12,1.87-0.48c0.63-0.69,0.27-1.98,0.27-1.98
		c-0.06-0.34-0.1-0.62-0.16-0.9l-1.12-5.38c-1.33-6.39-2.66-12.77-4-19.16c-0.42-2-0.84-4.01-1.27-6.01
		c-0.64-3.03-1.28-6.05-1.91-9.08c-0.25-1.21-0.78-2.08-1.57-2.59c-0.48-0.31-1.28-0.62-2.4-0.36c-1.3,0.3-2.34,1.35-2.84,2.16
		c-3.51,5.71-6.99,11.45-10.46,17.18l-2.6,4.29c-0.03,0.06-0.12,0.06-0.15,0c-0.99-1.64-1.99-3.28-2.99-4.92
		c-2.93-4.81-12.23-19.4-12.56-19.91c-0.01-0.01-0.01-0.02-0.01-0.04v-0.87c0-3.53,2.89-6.43,6.43-6.43h76.72
		c3.53,0,6.42,2.89,6.42,6.42v48.58c0,3.53-2.89,6.43-6.43,6.43h-8.56C-71.61,119.68-71.65,119.72-71.65,119.77z"/>
	
		<linearGradient id="SVGID_00000150799849518995736910000011413468311750921380_" gradientUnits="userSpaceOnUse" x1="-101.3478" y1="136.979" x2="-101.3478" y2="53.021">
		<stop  offset="0" style="stop-color:#01538B"/>
		<stop  offset="0.252" style="stop-color:#467EA5"/>
		<stop  offset="0.2945" style="stop-color:#6C82A0"/>
		<stop  offset="0.408" style="stop-color:#AE8A93"/>
		<stop  offset="0.503" style="stop-color:#D38E88"/>
		<stop  offset="0.5748" style="stop-color:#E88F81"/>
		<stop  offset="0.6151" style="stop-color:#EF8F7E"/>
		<stop  offset="0.7058" style="stop-color:#ED7B64"/>
		<stop  offset="0.8291" style="stop-color:#EB6448"/>
		<stop  offset="0.9316" style="stop-color:#EA5539"/>
		<stop  offset="1" style="stop-color:#EA4F34"/>
	</linearGradient>
	<path style="fill:url(#SVGID_00000150799849518995736910000011413468311750921380_);" d="M-66.41,131.49V125
		c0-0.05,0.04-0.09,0.09-0.09h3.34c6.43,0,11.65-5.22,11.65-11.65V64.68c0-6.44-5.22-11.66-11.66-11.66h-76.72
		c-6.43,0-11.65,5.22-11.65,11.65v48.58c0,6.44,5.22,11.66,11.66,11.66h52.95c0.02,0,0.04,0.01,0.06,0.02l11.49,10.65
		c0.99,0.91,2.26,1.39,3.56,1.39c1.03,0,2.08-0.31,3-0.94C-67.18,135.02-66.41,133.27-66.41,131.49z M-71.65,119.77v11.78
		c0,0.08-0.09,0.12-0.15,0.06l-12.85-11.91c-0.02-0.01-0.04-0.02-0.06-0.02h-55.01c-3.53,0-6.42-2.89-6.42-6.42V78.05
		c0-0.09,0.12-0.12,0.16-0.05l12.18,20.3c0.63,1.05,1.66,2.45,3.26,2.46c0,0,0,0,0.01,0c1.59,0,2.62-1.39,3.25-2.43l11.6-19.13
		c0.04-0.07,0.14-0.05,0.16,0.03l1.67,7.97c1.58,7.53,3.16,15.06,4.73,22.58c0.19,0.9,0.4,1.98,0.94,2.48
		c0.6,0.56,1.57,0.49,2.53,0.49c0.11,0,1.42-0.01,1.42-0.01c0.96,0,1.55-0.12,1.87-0.48c0.63-0.69,0.27-1.98,0.27-1.98
		c-0.06-0.34-0.1-0.62-0.16-0.9l-1.12-5.38c-1.33-6.39-2.66-12.77-4-19.16c-0.42-2-0.84-4.01-1.27-6.01
		c-0.64-3.03-1.28-6.05-1.91-9.08c-0.25-1.21-0.78-2.08-1.57-2.59c-0.48-0.31-1.28-0.62-2.4-0.36c-1.3,0.3-2.34,1.35-2.84,2.16
		c-3.51,5.71-6.99,11.45-10.46,17.18l-2.6,4.29c-0.03,0.06-0.12,0.06-0.15,0c-0.99-1.64-1.99-3.28-2.99-4.92
		c-2.93-4.81-12.23-19.4-12.56-19.91c-0.01-0.01-0.01-0.02-0.01-0.04v-0.87c0-3.53,2.89-6.43,6.43-6.43h76.72
		c3.53,0,6.42,2.89,6.42,6.42v48.58c0,3.53-2.89,6.43-6.43,6.43h-8.56C-71.61,119.68-71.65,119.72-71.65,119.77z"/>
</g>
<g>
	
		<linearGradient id="SVGID_00000105419896683469633600000008385237318980130713_" gradientUnits="userSpaceOnUse" x1="-226.0583" y1="107.517" x2="-226.0583" y2="94.36">
		<stop  offset="0" style="stop-color:#01538B"/>
		<stop  offset="0.252" style="stop-color:#467EA5"/>
		<stop  offset="0.2945" style="stop-color:#6C82A0"/>
		<stop  offset="0.408" style="stop-color:#AE8A93"/>
		<stop  offset="0.503" style="stop-color:#D38E88"/>
		<stop  offset="0.5748" style="stop-color:#E88F81"/>
		<stop  offset="0.6151" style="stop-color:#EF8F7E"/>
		<stop  offset="0.7058" style="stop-color:#ED7B64"/>
		<stop  offset="0.8291" style="stop-color:#EB6448"/>
		<stop  offset="0.9316" style="stop-color:#EA5539"/>
		<stop  offset="1" style="stop-color:#EA4F34"/>
	</linearGradient>
	<path style="fill:url(#SVGID_00000105419896683469633600000008385237318980130713_);" d="M-221.52,102.44
		c-0.78,0.01-1.55,0.01-2.34,0.01l-0.93,0c-0.26,0-0.5-0.19-0.5-0.45c0-0.36,0-0.71,0-1.03c0-0.37,0.31-0.54,0.52-0.54
		c0.43,0,1.69-0.02,2.1-0.02h0.01c-0.19-0.98-0.7-1.71-1.57-2.23c-1.19-0.71-2.39-0.74-3.57-0.08c-1.2,0.68-1.81,1.71-1.8,3.08
		c0.01,1.37,0.63,2.4,1.84,3.06c1.18,0.64,2.38,0.6,3.57-0.12c0.22-0.13,0.26-0.15,0.42-0.29c0.4-0.32,0.62-0.38,0.89-0.11
		c0.17,0.17,0.38,0.41,0.66,0.75c0.23,0.27,0.15,0.49-0.04,0.67c-0.74,0.72-1.62,1.2-2.63,1.42c-0.4,0.09-0.81,0.13-1.21,0.13
		c-1.07,0-2.12-0.31-3.04-0.91c-1.24-0.81-2.09-2.04-2.39-3.47c-0.31-1.51-0.02-3.03,0.82-4.28c0.84-1.25,2.13-2.09,3.64-2.37
		c1.63-0.3,3.29,0.16,4.58,1.27c1.3,1.12,2.02,2.73,1.96,4.41C-220.52,102.15-221.04,102.44-221.52,102.44z"/>
	
		<linearGradient id="SVGID_00000057106220351471960920000015174186374961945238_" gradientUnits="userSpaceOnUse" x1="-226.0583" y1="115.9612" x2="-226.0583" y2="89.1706">
		<stop  offset="0" style="stop-color:#01538B"/>
		<stop  offset="0.252" style="stop-color:#467EA5"/>
		<stop  offset="0.2945" style="stop-color:#6C82A0"/>
		<stop  offset="0.408" style="stop-color:#AE8A93"/>
		<stop  offset="0.503" style="stop-color:#D38E88"/>
		<stop  offset="0.5748" style="stop-color:#E88F81"/>
		<stop  offset="0.6151" style="stop-color:#EF8F7E"/>
		<stop  offset="0.7058" style="stop-color:#ED7B64"/>
		<stop  offset="0.8291" style="stop-color:#EB6448"/>
		<stop  offset="0.9316" style="stop-color:#EA5539"/>
		<stop  offset="1" style="stop-color:#EA4F34"/>
	</linearGradient>
	<path style="fill:url(#SVGID_00000057106220351471960920000015174186374961945238_);" d="M-222.46,96.95
		c-1.29-1.11-2.95-1.57-4.58-1.27c-1.51,0.28-2.8,1.12-3.64,2.37c-0.84,1.25-1.14,2.77-0.82,4.28c0.3,1.43,1.14,2.66,2.39,3.47
		c0.92,0.6,1.97,0.91,3.04,0.91c0.4,0,0.81-0.04,1.21-0.13c1.01-0.22,1.89-0.7,2.63-1.42c0.18-0.18,0.27-0.4,0.04-0.67
		c-0.29-0.33-0.49-0.58-0.66-0.75c-0.27-0.27-0.5-0.2-0.89,0.11c-0.16,0.13-0.21,0.16-0.42,0.29c-1.2,0.72-2.4,0.76-3.57,0.12
		c-1.21-0.66-1.83-1.69-1.84-3.06c-0.01-1.37,0.6-2.4,1.8-3.08c1.18-0.66,2.38-0.64,3.57,0.08c0.86,0.52,1.38,1.25,1.57,2.23h-0.01
		c-0.42,0-1.67,0.02-2.1,0.02c-0.21,0-0.52,0.17-0.52,0.54c0,0.32,0,0.67,0,1.03c0,0.26,0.24,0.45,0.5,0.45l0.93,0
		c0.79,0,1.56,0,2.34-0.01c0.48-0.01,0.99-0.29,1.02-1.08C-220.44,99.68-221.16,98.07-222.46,96.95z"/>
	
		<linearGradient id="SVGID_00000070111035447984864360000007568964574966661519_" gradientUnits="userSpaceOnUse" x1="-231.8478" y1="115.9612" x2="-231.8478" y2="89.1706">
		<stop  offset="0" style="stop-color:#01538B"/>
		<stop  offset="0.252" style="stop-color:#467EA5"/>
		<stop  offset="0.2945" style="stop-color:#6C82A0"/>
		<stop  offset="0.408" style="stop-color:#AE8A93"/>
		<stop  offset="0.503" style="stop-color:#D38E88"/>
		<stop  offset="0.5748" style="stop-color:#E88F81"/>
		<stop  offset="0.6151" style="stop-color:#EF8F7E"/>
		<stop  offset="0.7058" style="stop-color:#ED7B64"/>
		<stop  offset="0.8291" style="stop-color:#EB6448"/>
		<stop  offset="0.9316" style="stop-color:#EA5539"/>
		<stop  offset="1" style="stop-color:#EA4F34"/>
	</linearGradient>
	<path style="fill:url(#SVGID_00000070111035447984864360000007568964574966661519_);" d="M-221.07,114.27v-2
		c0-0.01,0.01-0.03,0.03-0.03h1.03c1.98,0,3.59-1.61,3.59-3.59V93.66c0-1.99-1.61-3.6-3.6-3.6h-23.66c-1.98,0-3.59,1.61-3.59,3.59
		v14.98c0,1.99,1.61,3.6,3.6,3.6h16.33c0.01,0,0.01,0,0.02,0.01l3.55,3.28c0.3,0.28,0.7,0.43,1.1,0.43c0.32,0,0.64-0.09,0.92-0.29
		C-221.31,115.36-221.07,114.82-221.07,114.27z M-222.69,110.65v3.63c0,0.02-0.03,0.04-0.05,0.02l-3.96-3.67
		c0,0-0.01-0.01-0.02-0.01h-16.97c-1.09,0-1.98-0.89-1.98-1.98V97.79c0-0.03,0.04-0.04,0.05-0.01l3.76,6.26
		c0.2,0.32,0.51,0.76,1,0.76c0,0,0,0,0,0c0.49,0,0.81-0.43,1-0.75l3.58-5.9c0.01-0.02,0.04-0.02,0.05,0.01l0.52,2.46
		c0.49,2.32,0.97,4.64,1.46,6.97c0.06,0.28,0.12,0.61,0.29,0.76c0.19,0.17,0.49,0.15,0.78,0.15c0.03,0,0.44,0,0.44,0
		c0.3,0,0.48-0.04,0.58-0.15c0.19-0.21,0.08-0.61,0.08-0.61c-0.02-0.1-0.03-0.19-0.05-0.28l-0.35-1.66
		c-0.41-1.97-0.82-3.94-1.23-5.91c-0.13-0.62-0.26-1.24-0.39-1.85c-0.2-0.93-0.4-1.87-0.59-2.8c-0.08-0.37-0.24-0.64-0.49-0.8
		c-0.15-0.09-0.4-0.19-0.74-0.11c-0.4,0.09-0.72,0.42-0.88,0.67c-1.08,1.76-2.16,3.53-3.23,5.3l-0.8,1.32
		c-0.01,0.02-0.04,0.02-0.05,0c-0.31-0.51-0.61-1.01-0.92-1.52c-0.9-1.48-3.77-5.98-3.87-6.14c0,0,0-0.01,0-0.01v-0.27
		c0-1.09,0.89-1.98,1.98-1.98h23.66c1.09,0,1.98,0.89,1.98,1.98v14.98c0,1.09-0.89,1.98-1.98,1.98h-2.64
		C-222.67,110.63-222.69,110.64-222.69,110.65z"/>
	
		<linearGradient id="SVGID_00000118396662905833414780000011324487282568699571_" gradientUnits="userSpaceOnUse" x1="-231.8478" y1="115.9612" x2="-231.8478" y2="90.0657">
		<stop  offset="0" style="stop-color:#01538B"/>
		<stop  offset="0.252" style="stop-color:#467EA5"/>
		<stop  offset="0.2945" style="stop-color:#6C82A0"/>
		<stop  offset="0.408" style="stop-color:#AE8A93"/>
		<stop  offset="0.503" style="stop-color:#D38E88"/>
		<stop  offset="0.5748" style="stop-color:#E88F81"/>
		<stop  offset="0.6151" style="stop-color:#EF8F7E"/>
		<stop  offset="0.7058" style="stop-color:#ED7B64"/>
		<stop  offset="0.8291" style="stop-color:#EB6448"/>
		<stop  offset="0.9316" style="stop-color:#EA5539"/>
		<stop  offset="1" style="stop-color:#EA4F34"/>
	</linearGradient>
	<path style="fill:url(#SVGID_00000118396662905833414780000011324487282568699571_);" d="M-221.07,114.27v-2
		c0-0.01,0.01-0.03,0.03-0.03h1.03c1.98,0,3.59-1.61,3.59-3.59V93.66c0-1.99-1.61-3.6-3.6-3.6h-23.66c-1.98,0-3.59,1.61-3.59,3.59
		v14.98c0,1.99,1.61,3.6,3.6,3.6h16.33c0.01,0,0.01,0,0.02,0.01l3.55,3.28c0.3,0.28,0.7,0.43,1.1,0.43c0.32,0,0.64-0.09,0.92-0.29
		C-221.31,115.36-221.07,114.82-221.07,114.27z M-222.69,110.65v3.63c0,0.02-0.03,0.04-0.05,0.02l-3.96-3.67
		c0,0-0.01-0.01-0.02-0.01h-16.97c-1.09,0-1.98-0.89-1.98-1.98V97.79c0-0.03,0.04-0.04,0.05-0.01l3.76,6.26
		c0.2,0.32,0.51,0.76,1,0.76c0,0,0,0,0,0c0.49,0,0.81-0.43,1-0.75l3.58-5.9c0.01-0.02,0.04-0.02,0.05,0.01l0.52,2.46
		c0.49,2.32,0.97,4.64,1.46,6.97c0.06,0.28,0.12,0.61,0.29,0.76c0.19,0.17,0.49,0.15,0.78,0.15c0.03,0,0.44,0,0.44,0
		c0.3,0,0.48-0.04,0.58-0.15c0.19-0.21,0.08-0.61,0.08-0.61c-0.02-0.1-0.03-0.19-0.05-0.28l-0.35-1.66
		c-0.41-1.97-0.82-3.94-1.23-5.91c-0.13-0.62-0.26-1.24-0.39-1.85c-0.2-0.93-0.4-1.87-0.59-2.8c-0.08-0.37-0.24-0.64-0.49-0.8
		c-0.15-0.09-0.4-0.19-0.74-0.11c-0.4,0.09-0.72,0.42-0.88,0.67c-1.08,1.76-2.16,3.53-3.23,5.3l-0.8,1.32
		c-0.01,0.02-0.04,0.02-0.05,0c-0.31-0.51-0.61-1.01-0.92-1.52c-0.9-1.48-3.77-5.98-3.87-6.14c0,0,0-0.01,0-0.01v-0.27
		c0-1.09,0.89-1.98,1.98-1.98h23.66c1.09,0,1.98,0.89,1.98,1.98v14.98c0,1.09-0.89,1.98-1.98,1.98h-2.64
		C-222.67,110.63-222.69,110.64-222.69,110.65z"/>
</g>
</svg>
