<?xml version="1.0" encoding="UTF-8"?>
<svg id="_レイヤー_2" data-name="レイヤー 2" xmlns="http://www.w3.org/2000/svg" xmlns:xlink="http://www.w3.org/1999/xlink" viewBox="0 0 152 127.57">
  <defs>
    <style>
      .cls-1 {
        fill: url(#_名称未設定グラデーション_8-3);
      }

      .cls-1, .cls-2, .cls-3, .cls-4 {
        stroke-width: 0px;
      }

      .cls-2 {
        fill: url(#_名称未設定グラデーション_8-2);
      }

      .cls-3 {
        fill: url(#_名称未設定グラデーション_8-4);
      }

      .cls-4 {
        fill: url(#_名称未設定グラデーション_8);
      }
    </style>
    <linearGradient id="_名称未設定グラデーション_8" data-name="名称未設定グラデーション 8" x1="104.54" y1="31.93" x2="104.54" y2="96.75" gradientTransform="translate(0 117.91) scale(1 -1)" gradientUnits="userSpaceOnUse">
      <stop offset="0" stop-color="#01538b"/>
      <stop offset=".25" stop-color="#467ea5"/>
      <stop offset=".29" stop-color="#6c82a0"/>
      <stop offset=".41" stop-color="#ae8a93"/>
      <stop offset=".5" stop-color="#d38e88"/>
      <stop offset=".57" stop-color="#e88f81"/>
      <stop offset=".62" stop-color="#ef8f7e"/>
      <stop offset=".71" stop-color="#ed7b64"/>
      <stop offset=".83" stop-color="#eb6448"/>
      <stop offset=".93" stop-color="#ea5539"/>
      <stop offset="1" stop-color="#ea4f34"/>
    </linearGradient>
    <linearGradient id="_名称未設定グラデーション_8-2" data-name="名称未設定グラデーション 8" x1="104.52" y1="-9.67" x2="104.52" y2="122.31" xlink:href="#_名称未設定グラデーション_8"/>
    <linearGradient id="_名称未設定グラデーション_8-3" data-name="名称未設定グラデーション 8" x1="76" y1="-9.66" x2="76" y2="122.33" xlink:href="#_名称未設定グラデーション_8"/>
    <linearGradient id="_名称未設定グラデーション_8-4" data-name="名称未設定グラデーション 8" x1="76" y1="-9.66" x2="76" y2="117.91" xlink:href="#_名称未設定グラデーション_8"/>
  </defs>
  <g id="_レイヤー_1-2" data-name="レイヤー 1">
    <g>
      <path class="cls-4" d="m126.9,60.99c-3.81.06-7.64.05-11.52.03l-4.57-.02c-1.26,0-2.45-.96-2.45-2.22.02-1.75,0-3.48,0-5.08,0-1.82,1.52-2.67,2.57-2.67,2.14,0,8.31-.09,10.36-.09h.03c-.93-4.82-3.46-8.42-7.72-10.97-5.87-3.53-11.78-3.65-17.58-.4-5.94,3.33-8.92,8.43-8.87,15.17.05,6.75,3.1,11.82,9.06,15.07,5.79,3.18,11.72,2.98,17.61-.56,1.06-.64,1.26-.76,2.07-1.4,1.96-1.55,3.08-1.87,4.41-.55.84.84,1.85,2.05,3.25,3.69,1.15,1.35.73,2.42-.18,3.31-3.63,3.56-7.99,5.93-12.96,7.02-1.98.44-3.97.65-5.94.65-5.27,0-10.42-1.52-14.97-4.47-6.14-3.98-10.32-10.04-11.76-17.09-1.53-7.45-.09-14.94,4.06-21.11,4.13-6.15,10.5-10.29,17.93-11.65,8.02-1.47,16.23.81,22.57,6.26,6.41,5.53,9.94,13.45,9.66,21.73-.15,3.87-2.7,5.29-5.04,5.33Z"/>
      <path class="cls-2" d="m122.26,33.93c-6.34-5.46-14.54-7.73-22.57-6.26-7.43,1.37-13.8,5.52-17.93,11.65-4.15,6.17-5.59,13.66-4.06,21.11,1.46,7.04,5.64,13.11,11.76,17.09,4.54,2.95,9.71,4.47,14.97,4.47,1.98,0,3.97-.21,5.94-.65,4.97-1.09,9.33-3.45,12.96-7.02.91-.9,1.32-1.96.18-3.31-1.41-1.64-2.42-2.86-3.25-3.69-1.32-1.32-2.45-1-4.41.55-.81.64-1.02.76-2.07,1.4-5.9,3.54-11.82,3.74-17.61.56-5.96-3.27-9.01-8.34-9.06-15.07s2.93-11.82,8.87-15.17c5.8-3.25,11.72-3.13,17.58.4,4.25,2.55,6.81,6.15,7.72,10.97h-.03c-2.07,0-8.24.09-10.36.09-1.05,0-2.57.85-2.57,2.67,0,1.6.02,3.31,0,5.08-.02,1.26,1.17,2.22,2.45,2.22l4.57.02c3.87.02,7.69.02,11.52-.03,2.34-.03,4.89-1.46,5.03-5.33.29-8.28-3.24-16.21-9.65-21.73Z"/>
      <path class="cls-1" d="m129.09,119.24v-9.86c0-.08.06-.14.14-.14h5.08c9.77,0,17.7-7.93,17.7-17.7V17.72c0-9.79-7.93-17.72-17.72-17.72H17.7C7.93,0,0,7.93,0,17.7v73.82c0,9.79,7.93,17.72,17.72,17.72h80.46s.06.02.09.03l17.46,16.18c1.5,1.38,3.43,2.11,5.41,2.11,1.57,0,3.16-.47,4.56-1.43,2.22-1.53,3.39-4.19,3.39-6.9Zm-7.96-17.81v17.9c0,.12-.14.18-.23.09l-19.53-18.1s-.06-.03-.09-.03H17.69c-5.36,0-9.76-4.39-9.76-9.76v-53.5c0-.14.18-.18.24-.08l18.51,30.85c.96,1.6,2.52,3.72,4.95,3.74h.02c2.42,0,3.98-2.11,4.94-3.69l17.63-29.07c.06-.11.21-.08.24.05l2.54,12.11c2.4,11.44,4.8,22.88,7.19,34.31.29,1.37.61,3.01,1.43,3.77.91.85,2.39.74,3.84.74.17,0,2.16-.02,2.16-.02,1.46,0,2.36-.18,2.84-.73.96-1.05.41-3.01.41-3.01-.09-.52-.15-.94-.24-1.37l-1.7-8.18c-2.02-9.71-4.04-19.4-6.08-29.11-.64-3.04-1.28-6.09-1.93-9.13-.97-4.6-1.95-9.19-2.9-13.8-.38-1.84-1.19-3.16-2.39-3.94-.73-.47-1.95-.94-3.65-.55-1.98.46-3.56,2.05-4.32,3.28-5.33,8.68-10.62,17.4-15.89,26.11l-3.95,6.52c-.05.09-.18.09-.23,0-1.5-2.49-3.02-4.98-4.54-7.48-4.45-7.31-18.58-29.48-19.09-30.25-.02-.02-.02-.03-.02-.06v-1.32c0-5.36,4.39-9.77,9.77-9.77h116.58c5.36,0,9.76,4.39,9.76,9.76v73.82c0,5.36-4.39,9.77-9.77,9.77h-13.01c-.09-.02-.15.05-.15.12Z"/>
      <path class="cls-3" d="m129.09,119.24v-9.86c0-.08.06-.14.14-.14h5.08c9.77,0,17.7-7.93,17.7-17.7V17.72c0-9.79-7.93-17.72-17.72-17.72H17.7C7.93,0,0,7.93,0,17.7v73.82c0,9.79,7.93,17.72,17.72,17.72h80.46s.06.02.09.03l17.46,16.18c1.5,1.38,3.43,2.11,5.41,2.11,1.57,0,3.16-.47,4.56-1.43,2.22-1.53,3.39-4.19,3.39-6.9Zm-7.96-17.81v17.9c0,.12-.14.18-.23.09l-19.53-18.1s-.06-.03-.09-.03H17.69c-5.36,0-9.76-4.39-9.76-9.76v-53.5c0-.14.18-.18.24-.08l18.51,30.85c.96,1.6,2.52,3.72,4.95,3.74h.02c2.42,0,3.98-2.11,4.94-3.69l17.63-29.07c.06-.11.21-.08.24.05l2.54,12.11c2.4,11.44,4.8,22.88,7.19,34.31.29,1.37.61,3.01,1.43,3.77.91.85,2.39.74,3.84.74.17,0,2.16-.02,2.16-.02,1.46,0,2.36-.18,2.84-.73.96-1.05.41-3.01.41-3.01-.09-.52-.15-.94-.24-1.37l-1.7-8.18c-2.02-9.71-4.04-19.4-6.08-29.11-.64-3.04-1.28-6.09-1.93-9.13-.97-4.6-1.95-9.19-2.9-13.8-.38-1.84-1.19-3.16-2.39-3.94-.73-.47-1.95-.94-3.65-.55-1.98.46-3.56,2.05-4.32,3.28-5.33,8.68-10.62,17.4-15.89,26.11l-3.95,6.52c-.05.09-.18.09-.23,0-1.5-2.49-3.02-4.98-4.54-7.48-4.45-7.31-18.58-29.48-19.09-30.25-.02-.02-.02-.03-.02-.06v-1.32c0-5.36,4.39-9.77,9.77-9.77h116.58c5.36,0,9.76,4.39,9.76,9.76v73.82c0,5.36-4.39,9.77-9.77,9.77h-13.01c-.09-.02-.15.05-.15.12Z"/>
    </g>
  </g>
</svg>