<svg id="コンポーネント_45_15" data-name="コンポーネント 45 – 15" xmlns="http://www.w3.org/2000/svg" width="131" height="131" viewBox="0 0 131 131">
  <rect id="placeholder" width="131" height="131" rx="10" fill="#e5e5e5"/>
  <path id="Icon_awesome-user-alt" data-name="Icon awesome-user-alt" d="M33.95,38.194a19.1,19.1,0,1,0-19.1-19.1A19.1,19.1,0,0,0,33.95,38.194Zm16.975,4.244H43.618a23.086,23.086,0,0,1-19.336,0H16.975A16.974,16.974,0,0,0,0,59.413v2.122A6.367,6.367,0,0,0,6.366,67.9H61.535A6.367,6.367,0,0,0,67.9,61.535V59.413A16.974,16.974,0,0,0,50.925,42.438Z" transform="translate(31.551 31.549)" fill="#fff"/>
</svg>
