<svg xmlns="http://www.w3.org/2000/svg" xmlns:xlink="http://www.w3.org/1999/xlink" width="26" height="26" viewBox="0 0 26 26">
  <defs>
    <clipPath id="clip-path">
      <rect id="長方形_2760" data-name="長方形 2760" width="26" height="26" fill="#d4d8dc"/>
    </clipPath>
  </defs>
  <g id="グループ_2034" data-name="グループ 2034" transform="translate(0 0.41)">
    <g id="グループ_2024" data-name="グループ 2024" transform="translate(0 -0.41)" clip-path="url(#clip-path)">
      <path id="パス_3730" data-name="パス 3730" d="M12.69,0c7.626,0,12.8,4.2,12.8,10.742a10.771,10.771,0,0,1-4.536,9.321c-.2.138-.435.159-.346.558.356,1.611.976,4.482.976,4.482a.332.332,0,0,1-.108.325.276.276,0,0,1-.318.027s-4.375-2.8-4.958-3.152a6.282,6.282,0,0,0-3.413-1C6.741,21.3,0,18.682,0,10.672,0,4.459,4.632,0,12.69,0" transform="translate(0 0.508)" fill="#d4d8dc"/>
    </g>
  </g>
</svg>
