<svg xmlns="http://www.w3.org/2000/svg" width="34.729" height="34.729" viewBox="0 0 34.729 34.729">
  <g id="吹き出しのアイコン12" transform="translate(0 0)">
    <path id="パス_3771" data-name="パス 3771" d="M4.712,18.189c3.041-2.72,7.39-4.309,12.707-4.308A18.638,18.638,0,0,1,29.854,18.07a13.994,13.994,0,0,1,3.6,4.836,14.937,14.937,0,0,1,1.276,6.146,16.261,16.261,0,0,1-1.595,7.285,13.861,13.861,0,0,1-4.456,5.171c.455,2.027,1.1,4.925,1.1,4.926a1.843,1.843,0,0,1-.612,1.81l0,0h0a1.624,1.624,0,0,1-1.017.363,1.6,1.6,0,0,1-.792-.21l-.025-.013L27.3,48.37l-.872-.546c-.792-.5-2-1.248-3.072-1.918-.537-.335-1.042-.648-1.446-.9s-.711-.438-.825-.5l-.006,0-.008,0a6.786,6.786,0,0,0-3.653-1.055A21.255,21.255,0,0,1,5.81,40.385a12.635,12.635,0,0,1-4.192-4.522A14.293,14.293,0,0,1,0,28.966,14.218,14.218,0,0,1,4.712,18.189Zm-.825,16.3a9.632,9.632,0,0,0,2.322,2.817,13.8,13.8,0,0,0,5.12,2.577,22.586,22.586,0,0,0,6.09.794,9.313,9.313,0,0,1,4.935,1.412h0c.213.125.687.418,1.312.8.9.556,2.077,1.292,3.062,1.909-.24-1.083-.519-2.336-.728-3.257h0a2.328,2.328,0,0,1-.06-.51,1.86,1.86,0,0,1,.209-.864,1.739,1.739,0,0,1,.369-.472,2.108,2.108,0,0,1,.4-.28L27,39.376l.009-.005a11.181,11.181,0,0,0,3.811-4.317,13.372,13.372,0,0,0,1.3-6,12.036,12.036,0,0,0-1.023-4.962,11.654,11.654,0,0,0-5-5.371,17.519,17.519,0,0,0-8.669-2.075c-4.835,0-8.542,1.437-11.019,3.654a11.365,11.365,0,0,0-3.786,8.668A11.4,11.4,0,0,0,3.886,34.49Z" transform="translate(0 -13.881)" fill="#005792"/>
  </g>
</svg>
