<svg xmlns="http://www.w3.org/2000/svg" width="15.91" height="15.91" viewBox="0 0 15.91 15.91">
  <g id="Icon_ionic-ios-arrow-dropdown" data-name="Icon ionic-ios-arrow-dropdown" transform="translate(-3.375 -3.375)">
    <path id="パス_2169" data-name="パス 2169" d="M10.2,14.632a.741.741,0,0,0,0,1.044l3.66,3.649a.737.737,0,0,0,1.017.023l3.607-3.6a.737.737,0,1,0-1.04-1.044l-3.1,3.052-3.1-3.132A.738.738,0,0,0,10.2,14.632Z" transform="translate(-4.646 25.671) rotate(-90)" fill="#343434"/>
    <path id="パス_2170" data-name="パス 2170" d="M3.375,11.33A7.955,7.955,0,1,0,11.33,3.375,7.954,7.954,0,0,0,3.375,11.33ZM16.088,6.572a6.728,6.728,0,1,1-9.515,9.515,6.728,6.728,0,1,1,9.515-9.515Z" fill="#343434"/>
  </g>
</svg>
