<svg id="グループ_2025" data-name="グループ 2025" xmlns="http://www.w3.org/2000/svg" xmlns:xlink="http://www.w3.org/1999/xlink" width="18" height="18" viewBox="0 0 18 18">
  <defs>
    <clipPath id="clip-path">
      <rect id="長方形_2760" data-name="長方形 2760" width="18" height="18" fill="#005792"/>
    </clipPath>
  </defs>
  <g id="グループ_2024" data-name="グループ 2024" clip-path="url(#clip-path)">
    <path id="パス_3730" data-name="パス 3730" d="M8.96,0C14.345,0,18,2.968,18,7.585a7.606,7.606,0,0,1-3.2,6.581c-.141.1-.307.113-.245.394.252,1.138.689,3.165.689,3.165a.235.235,0,0,1-.076.229.2.2,0,0,1-.224.019s-3.089-1.979-3.5-2.226a4.436,4.436,0,0,0-2.41-.709c-4.271,0-9.03-1.847-9.03-7.5C0,3.149,3.27,0,8.96,0" fill="#005792"/>
  </g>
</svg>
