<svg xmlns="http://www.w3.org/2000/svg" xmlns:xlink="http://www.w3.org/1999/xlink" width="22" height="22" viewBox="0 0 22 22">
  <defs>
    <clipPath id="clip-path">
      <rect id="長方形_2759" data-name="長方形 2759" width="22" height="22" fill="#005792"/>
    </clipPath>
  </defs>
  <g id="グループ_2022" data-name="グループ 2022" transform="translate(-0.438)">
    <g id="グループ_2021" data-name="グループ 2021" transform="translate(0.438)" clip-path="url(#clip-path)">
      <path id="パス_3727" data-name="パス 3727" d="M21.87,13.379l-1.7-1.341a1.123,1.123,0,0,1-.421-.886v-.011a1.123,1.123,0,0,1,.421-.888l1.7-1.341a1.108,1.108,0,0,0,.337-1.293l-.746-1.8a1.108,1.108,0,0,0-1.153-.676l-2.149.253a1.123,1.123,0,0,1-.926-.33l-.008-.008a1.123,1.123,0,0,1-.329-.924l.252-2.149A1.108,1.108,0,0,0,16.473.83l-1.8-.746a1.108,1.108,0,0,0-1.293.337l-1.341,1.7a1.123,1.123,0,0,1-.886.421h-.011a1.123,1.123,0,0,1-.888-.421L8.912.421A1.108,1.108,0,0,0,7.619.084L5.818.83a1.108,1.108,0,0,0-.676,1.153l.252,2.149a1.123,1.123,0,0,1-.33.925l-.008.008a1.123,1.123,0,0,1-.924.329L1.983,5.141A1.108,1.108,0,0,0,.83,5.818l-.746,1.8A1.108,1.108,0,0,0,.421,8.912l1.7,1.341a1.123,1.123,0,0,1,.421.886v.011a1.123,1.123,0,0,1-.421.888l-1.7,1.341a1.108,1.108,0,0,0-.337,1.293l.746,1.8a1.108,1.108,0,0,0,1.153.676L4.132,16.9a1.123,1.123,0,0,1,.926.33l.008.008a1.124,1.124,0,0,1,.329.924l-.252,2.149a1.108,1.108,0,0,0,.676,1.153l1.8.746a1.108,1.108,0,0,0,1.293-.337l1.341-1.7a1.124,1.124,0,0,1,.886-.421h.011a1.123,1.123,0,0,1,.888.421l1.341,1.7a1.108,1.108,0,0,0,1.293.337l1.8-.746a1.108,1.108,0,0,0,.676-1.153L16.9,18.159a1.123,1.123,0,0,1,.33-.925l.008-.008a1.123,1.123,0,0,1,.924-.329l2.149.252a1.108,1.108,0,0,0,1.153-.676l.746-1.8a1.108,1.108,0,0,0-.337-1.293m-9.623.975A3.386,3.386,0,1,1,14.079,9.93a3.386,3.386,0,0,1-1.832,4.424" transform="translate(-0.291 0)" fill="#005792"/>
    </g>
  </g>
</svg>
