<svg xmlns="http://www.w3.org/2000/svg" width="9.954" height="14.482" viewBox="0 0 9.954 14.482">
  <path id="Icon_awesome-question" data-name="Icon awesome-question" d="M6.79,0A5.481,5.481,0,0,0,1.922,2.575a.68.68,0,0,0,.146.93l1.22.925a.679.679,0,0,0,.941-.117,2.744,2.744,0,0,1,2.341-1.4c.87,0,1.947.56,1.947,1.4,0,.638-.527.966-1.386,1.447-1,.562-2.328,1.261-2.328,3.01v.277a.679.679,0,0,0,.679.679h2.05a.679.679,0,0,0,.679-.679V8.888c0-1.212,3.543-1.263,3.543-4.543C11.754,1.874,9.191,0,6.79,0ZM6.507,10.564a1.959,1.959,0,1,0,1.959,1.959A1.962,1.962,0,0,0,6.507,10.564Z" transform="translate(-1.8)" fill="#a3a3a3"/>
</svg>
