<svg xmlns="http://www.w3.org/2000/svg" width="13.207" height="12.084" viewBox="0 0 13.207 12.084">
  <g id="グループ_1569" data-name="グループ 1569" transform="translate(23882.225 23686.244)">
    <g id="グループ_1568" data-name="グループ 1568">
      <g id="グループ_1567" data-name="グループ 1567" transform="translate(-24107.295 -23786.012)">
        <path id="Vector" d="M6.6,9.245A6.235,6.235,0,0,1,3.1,8.139,9.737,9.737,0,0,1,.2,4.953L0,4.622l.2-.33a10.289,10.289,0,0,1,2.93-3.186A6.158,6.158,0,0,1,6.6,0a6.159,6.159,0,0,1,3.475,1.106,10.288,10.288,0,0,1,2.93,3.186l.2.33-.2.33a10.288,10.288,0,0,1-2.93,3.186A6.159,6.159,0,0,1,6.6,9.245Zm0-7.924c-1.839,0-3.621,1.172-5.018,3.3,1.4,2.129,3.179,3.3,5.018,3.3s3.622-1.173,5.019-3.3C10.225,2.494,8.443,1.321,6.6,1.321Z" transform="translate(225.07 101.186)" fill="#343434"/>
        <path id="Vector-2" data-name="Vector" d="M1.981,3.962A1.981,1.981,0,1,1,3.962,1.981,1.981,1.981,0,0,1,1.981,3.962Z" transform="translate(229.693 103.826)" fill="#343434"/>
      </g>
      <g id="長方形_2685" data-name="長方形 2685" transform="matrix(0.799, 0.602, -0.602, 0.799, -23872, -23686.244)" fill="#343434" stroke="#fff" stroke-width="0.3">
        <rect width="1.5" height="14" stroke="none"/>
        <rect x="0.15" y="0.15" width="1.2" height="13.7" fill="none"/>
      </g>
    </g>
  </g>
</svg>
