<svg xmlns="http://www.w3.org/2000/svg" width="34.667" height="34.667" viewBox="0 0 34.667 34.667">
  <g id="グループ_1657" data-name="グループ 1657" transform="translate(-670.173 -478.342)">
    <g id="グループ_1591" data-name="グループ 1591" transform="translate(670.173 478.342)">
      <path id="パス_3716" data-name="パス 3716" d="M12.772,0h9.123A12.772,12.772,0,0,1,34.667,12.772v9.123A12.772,12.772,0,0,1,21.895,34.667H12.772A12.772,12.772,0,0,1,0,21.895V12.772A12.772,12.772,0,0,1,12.772,0Z" transform="translate(0)" fill="#f3f5f6"/>
    </g>
    <path id="Icon_material-favorite-border" data-name="Icon material-favorite-border" d="M18.8,4.5a6.527,6.527,0,0,0-4.9,2.278A6.527,6.527,0,0,0,8.995,4.5,5.936,5.936,0,0,0,3,10.495c0,4.12,3.706,7.477,9.319,12.578L13.9,24.5l1.58-1.439c5.613-5.09,9.319-8.447,9.319-12.567A5.936,5.936,0,0,0,18.8,4.5Zm-4.8,16.948-.109.109-.109-.109c-5.188-4.7-8.61-7.8-8.61-10.954A3.725,3.725,0,0,1,8.995,6.68a4.261,4.261,0,0,1,3.891,2.572h2.038A4.234,4.234,0,0,1,18.8,6.68a3.725,3.725,0,0,1,3.815,3.815C22.619,13.644,19.2,16.751,14.008,21.448Z" transform="translate(673.606 482.295)" fill="#005792"/>
  </g>
</svg>
