<svg xmlns="http://www.w3.org/2000/svg" width="51.117" height="51.117" viewBox="0 0 51.117 51.117">
  <g id="グループ_1505" data-name="グループ 1505" transform="translate(-78.086 -529)">
    <path id="パス_1523" data-name="パス 1523" d="M1596.2,255.393a5.2,5.2,0,1,0-5.2-5.2,5.2,5.2,0,0,0,5.2,5.2" transform="translate(-1499.538 293.084)" fill="#005792" stroke="#fff" stroke-width="1"/>
    <path id="パス_1524" data-name="パス 1524" d="M1620.628,269.026l-2.227,2.227-1.534-1.532a17.876,17.876,0,1,0-3.149,3.149l1.535,1.532-2.227,2.227,14.282,14.282,7.6-7.6Zm-17.814,3.149a13.36,13.36,0,1,1,13.36-13.36,13.374,13.374,0,0,1-13.36,13.36m16.509,4.454,1.305-1.3,7.985,7.985-1.305,1.3Z" transform="translate(-1506.414 288.5)" fill="#005792" stroke="#fff" stroke-width="1"/>
    <path id="パス_1525" data-name="パス 1525" d="M1600.393,250h-5.2a5.2,5.2,0,0,0-5.2,5.2v2.674a12.879,12.879,0,0,0,15.59,0V255.2a5.2,5.2,0,0,0-5.2-5.2" transform="translate(-1500.96 298.805)" fill="#005792" stroke="#fff" stroke-width="1"/>
  </g>
</svg>
