<svg id="グループ_1656" data-name="グループ 1656" xmlns="http://www.w3.org/2000/svg" xmlns:xlink="http://www.w3.org/1999/xlink" width="35" height="35" viewBox="0 0 35 35">
  <defs>
    <clipPath id="clip-path">
      <rect id="長方形_2706" data-name="長方形 2706" width="35" height="35" fill="#005792"/>
    </clipPath>
  </defs>
  <g id="グループ_1655" data-name="グループ 1655" clip-path="url(#clip-path)">
    <path id="パス_3717" data-name="パス 3717" d="M35,14.152a3.375,3.375,0,0,0-.15-.994h0A3.133,3.133,0,0,0,31.883,10.9H23.132L20.468,2.256a3.08,3.08,0,0,0-5.935,0l1.347.452-1.347-.451L11.868,10.9H3.117A3.134,3.134,0,0,0,.15,13.156h0a3.375,3.375,0,0,0-.15.994,3.3,3.3,0,0,0,1.3,2.641h0L8.389,22.1,5.66,30.734v0A3.37,3.37,0,0,0,5.5,31.751a3.3,3.3,0,0,0,1.284,2.628h0a3.016,3.016,0,0,0,3.674-.007h0L17.5,29l7.037,5.376h0a3.015,3.015,0,0,0,3.673.007h0A3.3,3.3,0,0,0,29.5,31.75a3.367,3.367,0,0,0-.156-1.016L26.612,22.1,33.7,16.792h0a3.3,3.3,0,0,0,1.3-2.64m-2.95.243h0l-7.932,5.938a1.507,1.507,0,0,0-.519,1.66l3.055,9.664.014.093a.3.3,0,0,1-.12.244h0a.275.275,0,0,1-.169.057.282.282,0,0,1-.171-.058h0l-7.873-6.015a1.372,1.372,0,0,0-1.673,0L8.791,31.992a.277.277,0,0,1-.17.058.274.274,0,0,1-.169-.057.3.3,0,0,1-.119-.242l.014-.093v0L11.4,21.992a1.507,1.507,0,0,0-.519-1.66L2.95,14.4h0a.3.3,0,0,1-.12-.243l.014-.091a.289.289,0,0,1,.274-.208H12.9a1.421,1.421,0,0,0,1.347-1.025l2.979-9.671a.284.284,0,0,1,.547,0l2.979,9.67A1.421,1.421,0,0,0,22.1,13.853h9.783a.288.288,0,0,1,.274.208l.014.091a.3.3,0,0,1-.12.243" transform="translate(0)" fill="#005792"/>
  </g>
</svg>
