<svg xmlns="http://www.w3.org/2000/svg" width="11.217" height="14.956" viewBox="0 0 11.217 14.956">
  <path id="Icon_awesome-file-download" data-name="Icon awesome-file-download" d="M6.543,3.973V0H.7A.7.7,0,0,0,0,.7V14.255a.7.7,0,0,0,.7.7h9.815a.7.7,0,0,0,.7-.7V4.674H7.244A.7.7,0,0,1,6.543,3.973Zm2.233,6.174-2.816,2.8a.5.5,0,0,1-.7,0l-2.816-2.8a.467.467,0,0,1,.329-.8h1.9V7.01a.467.467,0,0,1,.467-.467h.935a.467.467,0,0,1,.467.467V9.347h1.9A.467.467,0,0,1,8.776,10.147Zm2.236-7.079L8.153.2a.7.7,0,0,0-.5-.2H7.478V3.739h3.739V3.561A.7.7,0,0,0,11.012,3.067Z" fill="#005792"/>
</svg>
