<svg xmlns="http://www.w3.org/2000/svg" width="43.188" height="56.809" viewBox="0 0 43.188 56.809">
  <g id="グループ_1830" data-name="グループ 1830" transform="translate(-577.5 -1456)">
    <path id="パス_3722" data-name="パス 3722" d="M-13997.22-20814v54.809h17.356v-13.988h6.864v13.988h16.967V-20814Z" transform="translate(14575.72 22271)" fill="none" stroke="#005792" stroke-width="2"/>
    <g id="グループ_1827" data-name="グループ 1827">
      <g id="長方形_2728" data-name="長方形 2728" transform="translate(588 1463)" fill="#fff" stroke="#005792" stroke-width="2">
        <rect width="8" height="8" stroke="none"/>
        <rect x="1" y="1" width="6" height="6" fill="none"/>
      </g>
      <g id="長方形_2729" data-name="長方形 2729" transform="translate(602 1463)" fill="#fff" stroke="#005792" stroke-width="2">
        <rect width="8" height="8" stroke="none"/>
        <rect x="1" y="1" width="6" height="6" fill="none"/>
      </g>
    </g>
    <g id="グループ_1828" data-name="グループ 1828" transform="translate(0 11)">
      <g id="長方形_2728-2" data-name="長方形 2728" transform="translate(588 1463)" fill="#fff" stroke="#005792" stroke-width="2">
        <rect width="8" height="8" stroke="none"/>
        <rect x="1" y="1" width="6" height="6" fill="none"/>
      </g>
      <g id="長方形_2729-2" data-name="長方形 2729" transform="translate(602 1463)" fill="#fff" stroke="#005792" stroke-width="2">
        <rect width="8" height="8" stroke="none"/>
        <rect x="1" y="1" width="6" height="6" fill="none"/>
      </g>
    </g>
    <g id="グループ_1829" data-name="グループ 1829" transform="translate(0 22)">
      <g id="長方形_2728-3" data-name="長方形 2728" transform="translate(588 1463)" fill="#fff" stroke="#005792" stroke-width="2">
        <rect width="8" height="8" stroke="none"/>
        <rect x="1" y="1" width="6" height="6" fill="none"/>
      </g>
      <g id="長方形_2729-3" data-name="長方形 2729" transform="translate(602 1463)" fill="#fff" stroke="#005792" stroke-width="2">
        <rect width="8" height="8" stroke="none"/>
        <rect x="1" y="1" width="6" height="6" fill="none"/>
      </g>
    </g>
  </g>
</svg>
