<?xml version="1.0" encoding="UTF-8"?><svg id="_レイヤー_2" xmlns="http://www.w3.org/2000/svg" xmlns:xlink="http://www.w3.org/1999/xlink" viewBox="0 0 385.51 107.72"><defs><style>.cls-1,.cls-2,.cls-3,.cls-4,.cls-5,.cls-6,.cls-7,.cls-8{stroke-width:0px;}.cls-2{fill:none;}.cls-3{fill:url(#_名称未設定グラデーション_7-4);}.cls-4{fill:#005792;}.cls-5{fill:#fff;}.cls-6{fill:url(#_名称未設定グラデーション_7-3);}.cls-7{fill:url(#_名称未設定グラデーション_7);}.cls-8{fill:url(#_名称未設定グラデーション_7-2);}</style><linearGradient id="_名称未設定グラデーション_7" x1="97.56" y1="69.3" x2="97.56" y2="26.86" gradientUnits="userSpaceOnUse"><stop offset="0" stop-color="#005792"/><stop offset=".25" stop-color="#4583ad"/><stop offset=".28" stop-color="#5984a8"/><stop offset=".4" stop-color="#9d8a97"/><stop offset=".5" stop-color="#ce8f8b"/><stop offset=".57" stop-color="#ed9183"/><stop offset=".62" stop-color="#f99381"/><stop offset=".69" stop-color="#fa816c"/><stop offset=".82" stop-color="#fc654a"/><stop offset=".93" stop-color="#fd5436"/><stop offset="1" stop-color="#fe4e2f"/></linearGradient><linearGradient id="_名称未設定グラデーション_7-2" x1="97.56" y1="96.54" x2="97.56" y2="10.12" xlink:href="#_名称未設定グラデーション_7"/><linearGradient id="_名称未設定グラデーション_7-3" x1="78.88" y1="96.54" x2="78.88" y2="10.12" xlink:href="#_名称未設定グラデーション_7"/><linearGradient id="_名称未設定グラデーション_7-4" x1="78.88" y1="96.54" x2="78.88" y2="13.01" xlink:href="#_名称未設定グラデーション_7"/></defs><g id="_レイヤー_1-2"><polygon class="cls-4" points="170.72 96.05 155.04 96.05 179.44 68.36 195.13 68.36 170.72 96.05"/><polygon class="cls-4" points="147.35 96.05 135.72 96.05 160.13 68.36 171.76 68.36 147.35 96.05"/><polygon class="cls-4" points="334.99 96.05 178.6 96.05 203.01 68.36 348.06 68.36 334.99 96.05"/><path class="cls-7" d="m112.21,52.94c-2.5.04-5,.03-7.54.02h-3c-.83,0-1.6-.63-1.6-1.46,0-1.15,0-2.28,0-3.32,0-1.2.99-1.75,1.68-1.75,1.4,0,5.44-.06,6.79-.06h.02c-.6-3.15-2.27-5.51-5.06-7.18-3.84-2.31-7.71-2.39-11.51-.25-3.89,2.18-5.84,5.52-5.81,9.93.03,4.41,2.03,7.74,5.93,9.87,3.79,2.08,7.67,1.95,11.53-.37.69-.42.83-.5,1.36-.92,1.28-1.02,2.02-1.22,2.88-.36.55.55,1.21,1.34,2.13,2.42.75.88.48,1.58-.12,2.17-2.38,2.33-5.24,3.88-8.49,4.59-1.3.28-2.6.42-3.9.42-3.45,0-6.83-1-9.8-2.92-4.02-2.6-6.75-6.58-7.7-11.19-1.01-4.87-.06-9.78,2.66-13.82,2.71-4.03,6.88-6.74,11.74-7.63,5.25-.96,10.63.53,14.77,4.1,4.2,3.62,6.51,8.8,6.33,14.23-.08,2.54-1.76,3.46-3.29,3.49Z"/><path class="cls-8" d="m109.17,35.22c-4.15-3.57-9.52-5.07-14.77-4.1-4.86.9-9.03,3.61-11.74,7.63-2.72,4.04-3.66,8.95-2.66,13.82.95,4.61,3.69,8.59,7.7,11.19,2.97,1.93,6.35,2.92,9.8,2.92,1.3,0,2.6-.14,3.9-.42,3.25-.71,6.11-2.26,8.49-4.59.59-.58.87-1.29.12-2.17-.92-1.08-1.58-1.87-2.13-2.42-.86-.86-1.6-.66-2.88.36-.53.42-.66.5-1.36.92-3.86,2.32-7.74,2.45-11.53.37-3.9-2.14-5.9-5.46-5.93-9.87-.03-4.4,1.92-7.74,5.81-9.93,3.8-2.13,7.67-2.05,11.51.25,2.79,1.67,4.45,4.03,5.06,7.18h-.02c-1.35,0-5.39.06-6.79.06-.69,0-1.68.55-1.68,1.75,0,1.04.01,2.17,0,3.32,0,.83.77,1.45,1.6,1.45h3c2.53.01,5.04.02,7.54-.02,1.54-.02,3.21-.95,3.29-3.49.18-5.43-2.13-10.61-6.33-14.23Z"/><path class="cls-6" d="m113.64,91.08v-6.45s.04-.09.09-.09h3.32c6.4,0,11.59-5.19,11.59-11.59V24.61c0-6.41-5.19-11.6-11.6-11.6H40.72c-6.4,0-11.59,5.19-11.59,11.59v48.33c0,6.41,5.19,11.6,11.6,11.6h52.68s.04,0,.06.02l11.44,10.59c.98.91,2.25,1.39,3.54,1.39,1.03,0,2.07-.3,2.98-.94,1.46-1.01,2.22-2.75,2.22-4.53Zm-5.21-11.66v11.72c0,.08-.09.12-.15.06l-12.79-11.85s-.04-.02-.06-.02h-54.73c-3.51,0-6.39-2.87-6.39-6.39v-35.03c0-.09.12-.12.16-.04l12.12,20.19c.63,1.05,1.65,2.44,3.24,2.44h0c1.58,0,2.6-1.38,3.23-2.42l11.54-19.03c.04-.07.14-.05.16.03l1.66,7.93c1.57,7.49,3.14,14.98,4.7,22.47.19.9.39,1.97.93,2.46.6.55,1.57.49,2.52.49.11,0,1.41-.01,1.41-.01.95,0,1.54-.12,1.86-.48.62-.69.27-1.97.27-1.97-.06-.33-.1-.61-.16-.89l-1.12-5.36c-1.32-6.35-2.65-12.71-3.98-19.06-.42-1.99-.84-3.99-1.26-5.98-.64-3.01-1.28-6.02-1.9-9.03-.25-1.2-.77-2.07-1.57-2.58-.48-.31-1.28-.62-2.39-.36-1.29.3-2.33,1.34-2.82,2.15-3.5,5.68-6.95,11.39-10.41,17.09l-2.59,4.27c-.03.06-.11.06-.15,0-.99-1.63-1.98-3.26-2.97-4.9-2.91-4.78-12.17-19.3-12.49-19.81,0-.01,0-.02,0-.04v-.86c0-3.52,2.88-6.39,6.39-6.39h76.33c3.51,0,6.39,2.87,6.39,6.39v48.33c0,3.52-2.88,6.39-6.39,6.39h-8.52s-.09.04-.09.09Z"/><path class="cls-3" d="m113.64,91.08v-6.45s.04-.09.09-.09h3.32c6.4,0,11.59-5.19,11.59-11.59V24.61c0-6.41-5.19-11.6-11.6-11.6H40.72c-6.4,0-11.59,5.19-11.59,11.59v48.33c0,6.41,5.19,11.6,11.6,11.6h52.68s.04,0,.06.02l11.44,10.59c.98.91,2.25,1.39,3.54,1.39,1.03,0,2.07-.3,2.98-.94,1.46-1.01,2.22-2.75,2.22-4.53Zm-5.21-11.66v11.72c0,.08-.09.12-.15.06l-12.79-11.85s-.04-.02-.06-.02h-54.73c-3.51,0-6.39-2.87-6.39-6.39v-35.03c0-.09.12-.12.16-.04l12.12,20.19c.63,1.05,1.65,2.44,3.24,2.44h0c1.58,0,2.6-1.38,3.23-2.42l11.54-19.03c.04-.07.14-.05.16.03l1.66,7.93c1.57,7.49,3.14,14.98,4.7,22.47.19.9.39,1.97.93,2.46.6.55,1.57.49,2.52.49.11,0,1.41-.01,1.41-.01.95,0,1.54-.12,1.86-.48.62-.69.27-1.97.27-1.97-.06-.33-.1-.61-.16-.89l-1.12-5.36c-1.32-6.35-2.65-12.71-3.98-19.06-.42-1.99-.84-3.99-1.26-5.98-.64-3.01-1.28-6.02-1.9-9.03-.25-1.2-.77-2.07-1.57-2.58-.48-.31-1.28-.62-2.39-.36-1.29.3-2.33,1.34-2.82,2.15-3.5,5.68-6.95,11.39-10.41,17.09l-2.59,4.27c-.03.06-.11.06-.15,0-.99-1.63-1.98-3.26-2.97-4.9-2.91-4.78-12.17-19.3-12.49-19.81,0-.01,0-.02,0-.04v-.86c0-3.52,2.88-6.39,6.39-6.39h76.33c3.51,0,6.39,2.87,6.39,6.39v48.33c0,3.52-2.88,6.39-6.39,6.39h-8.52s-.09.04-.09.09Z"/><path class="cls-1" d="m232.9,10.2h6.14v18.85c.1.03.21.07.31.1.22-.3.45-.58.66-.89,3.47-5.06,11.23-6.56,16.38-3.15,4.58,3.04,4.93,10.48.54,14.13-1.57,1.31-3.48,2.21-5.07,3.2,3.42,4.8,6.94,9.75,10.47,14.7-.1.11-.19.23-.29.34-2.25,0-4.51.05-6.76-.04-.4-.02-.87-.56-1.16-.96-2.77-3.88-5.53-7.77-8.26-11.68-.56-.8-1.16-.95-2.11-.67-2.89.84-4.28,2.6-4.49,6.07-.11,1.9-.1,3.8-.14,5.7,0,.5,0,.99,0,1.54h-6.22V10.2Zm6.37,30.53c2.03-.63,4.07-1.28,6.13-1.9,1.06-.32,2.21-.44,3.2-.91,1.32-.62,2.67-1.33,3.73-2.29,1.41-1.29,1.46-3.06.75-4.77-.66-1.59-2.11-1.98-3.66-2.04-6.21-.24-11.29,5.88-10.15,11.91Z"/><path class="cls-1" d="m293.36,50.08c0,1.61.03,3.09-.03,4.57-.01.34-.27.83-.55.96-6.01,2.79-12.22,3.88-18.55,1.33-4.45-1.79-6.66-5.6-7.66-10.11-1.31-5.9-1.03-11.63,2.39-16.86,4.23-6.49,13.62-8.57,20.39-4.78,5.6,3.14,5.89,12.65.05,15.33-3.08,1.41-6.44,2.24-9.69,3.29-1.1.35-2.26.53-3.36.86-2.92.89-3.65,3.36-1.68,5.69,1.73,2.05,4.06,2.63,6.63,2.55,3.75-.11,7.33-.97,10.8-2.37.38-.15.76-.28,1.27-.46Zm-21.1-9.04c1.62-.56,3.08-1.12,4.57-1.57,1.5-.45,3.06-.72,4.54-1.23,1.43-.49,2.87-1.05,4.14-1.85,1.49-.93,1.78-2.49,1.47-4.18-.28-1.57-1.23-2.55-2.69-3.07-3.64-1.29-7.74.1-9.89,3.34-1.73,2.62-2.1,5.56-2.14,8.55Z"/><path class="cls-1" d="m351.25,50.09c0,1.62.03,3.14-.02,4.65-.01.29-.27.72-.53.84-6.15,2.85-12.49,3.96-18.93,1.18-4.41-1.91-6.49-5.82-7.42-10.32-1.18-5.76-.86-11.37,2.47-16.47,4.24-6.49,13.6-8.59,20.38-4.82,5.61,3.12,5.97,12.69,0,15.4-3.09,1.4-6.45,2.21-9.7,3.25-1.14.36-2.35.53-3.49.91-2.61.86-3.32,3.17-1.63,5.38,1.7,2.23,4.11,2.87,6.79,2.79,3.94-.12,7.7-1.03,11.31-2.58.2-.09.43-.13.79-.23Zm-21.1-9.08c1.77-.58,3.37-1.15,4.99-1.64,1.41-.43,2.89-.68,4.27-1.17,1.38-.49,2.77-1.04,4-1.83,1.49-.95,1.76-2.5,1.45-4.18-.29-1.57-1.24-2.55-2.7-3.06-3.66-1.28-7.73.11-9.88,3.36-1.73,2.61-2.1,5.55-2.13,8.51Z"/><path class="cls-1" d="m197.25,24.2h6.14c0,.56,0,1.06,0,1.55,0,5.71-.01,11.41.01,17.12,0,1.3.08,2.6.22,3.88.5,4.61,3.43,6.66,7.99,5.62,2.95-.67,4.89-2.52,5.57-5.41.49-2.1.69-4.3.74-6.46.1-4.92.03-9.83.04-14.75,0-.5.04-.99.07-1.55h6.15v33.28c-1.59,0-3.19.04-4.8-.04-.26-.01-.66-.48-.71-.79-.23-1.22-.36-2.46-.55-3.93-.34.44-.57.73-.8,1.03-3.27,4.39-9.35,5.91-14.31,3.55-3.69-1.76-5.53-4.91-5.67-8.78-.27-7.97-.2-15.95-.26-23.93,0-.08.07-.17.16-.38Z"/><path class="cls-1" d="m188.8,30.6c-2.92-.67-5.63-1.44-8.39-1.87-1.37-.21-2.86.04-4.24.36-1.51.35-2.46,1.41-2.61,3.05-.16,1.71.44,3.07,2.02,3.76,2.03.88,4.15,1.58,6.22,2.37,1.17.45,2.35.86,3.47,1.41,3.48,1.72,5.08,4.61,4.97,8.45-.12,4.06-1.8,7.24-5.68,8.76-5.67,2.21-11.34,1.82-16.88-.62-.32-.14-.65-.65-.67-1.01-.07-1.52-.03-3.05-.03-4.7,1.42.53,2.74,1.06,4.09,1.5,2.91.94,5.87,1.31,8.9.7,2.22-.45,3.5-1.62,3.73-3.38.28-2.14-.42-3.48-2.67-4.48-1.85-.83-3.81-1.43-5.71-2.14-.78-.29-1.58-.55-2.33-.89-4.32-1.98-6.29-5.2-5.9-9.56.4-4.4,2.97-7.36,7.6-8.41,4.45-1,8.84-.54,13.09,1.15.74.29,1.1.68,1.06,1.54-.07,1.38-.02,2.77-.02,4.03Z"/><path class="cls-1" d="m144.07,29.18h-4.44v-5.02h4.44c0-2.4.04-4.66-.02-6.92-.03-.89.24-1.36,1.12-1.57,1.69-.4,3.36-.86,5.24-1.35v9.77h8.09v5.06h-7.95c-.05.41-.12.67-.12.93,0,5.8,0,11.59.02,17.39,0,.74.05,1.49.19,2.21.37,1.94,1.09,2.76,3.03,2.82,1.96.06,3.93-.25,5.94-.4v5.12c-3.48.95-6.94,1.25-10.37-.05-2.63-1-3.94-3.17-4.55-5.75-.38-1.61-.56-3.29-.59-4.95-.07-5.19-.03-10.39-.03-15.58v-1.71Z"/><path class="cls-1" d="m310.67,24.16h8.15v4.97h-7.97c-.06.45-.13.75-.13,1.06,0,5.7,0,11.41,0,17.11,0,.42.01.83.04,1.25.17,3,1.25,4.12,4.25,4.08,1.6-.03,3.19-.42,4.93-.67,0,1.48.03,3.04-.03,4.59-.01.3-.37.77-.65.84-3.15.76-6.32,1-9.45-.11-3.36-1.19-4.59-3.99-5.15-7.17-.24-1.36-.29-2.77-.3-4.15-.03-5.52-.01-11.03-.01-16.75h-4.47v-5.02h4.47c0-2.35.07-4.56-.03-6.77-.05-1.09.32-1.6,1.35-1.83,1.61-.36,3.2-.8,4.99-1.26v9.82Z"/><rect class="cls-2" width="385.51" height="107.72"/><path class="cls-5" d="m240.11,86.93h-8.66l-3.81,4.43h-4.42l16.09-18.12h5.68l-.83,18.12h-4.38l.32-4.43Zm.19-2.85l.59-8.05-6.95,8.05h6.37Z"/><path class="cls-5" d="m246.96,87.94l3.78-8.1h-2.7l1.16-2.46h2.74l1.58-3.36h3.84l-1.58,3.36h4.11l-1.12,2.46h-4.11l-3.73,8.02c-.34.73-.13.98.76.98h2.84l-1.17,2.51h-3.59c-3.01,0-3.89-1.09-2.79-3.42Z"/><path class="cls-5" d="m265.2,72.47h3.94l-3.26,6.91c2-1.24,3.65-2.12,6.9-2.12,3.59,0,4.5,1.09,3.36,3.49l-4.95,10.61h-3.9l4.86-10.38c.35-.78.11-1.06-1.26-1.06-2.43,0-3.86.39-5.74,1.11l-4.85,10.33h-3.94l8.85-18.89Z"/><path class="cls-5" d="m284.1,72.47h3.94l-8.85,18.89h-3.94l8.85-18.89Z"/><path class="cls-5" d="m302.65,80.8l-2.02,4.37h-10.75l-1.29,2.74c-.34.73-.09.98.8.98h4.31c.92,0,1.39-.26,1.74-.98l.49-1.06h3.9l-.49,1.09c-1.09,2.33-3.03,3.42-6.04,3.42h-5.82c-3.01,0-3.92-1.09-2.83-3.42l3.35-7.14c1.09-2.33,2.99-3.42,6.01-3.42h5.82c3.01,0,3.92,1.09,2.83,3.42Zm-4.74-.96h-4.31c-.89,0-1.36.26-1.67.98l-1.07,2.25h6.81l1.08-2.25c.31-.72.09-.98-.83-.98Z"/><path class="cls-5" d="m303.33,87.94l3.78-8.1h-2.7l1.16-2.46h2.74l1.58-3.36h3.84l-1.58,3.36h4.11l-1.12,2.46h-4.11l-3.73,8.02c-.34.73-.13.98.76.98h2.84l-1.17,2.51h-3.59c-3.01,0-3.89-1.09-2.79-3.42Z"/><path class="cls-5" d="m331.95,80.8l-2.02,4.37h-10.75l-1.29,2.74c-.34.73-.09.98.8.98h4.31c.92,0,1.4-.26,1.74-.98l.49-1.06h3.9l-.49,1.09c-1.09,2.33-3.03,3.42-6.04,3.42h-5.82c-3.01,0-3.92-1.09-2.83-3.42l3.35-7.14c1.09-2.33,2.99-3.42,6-3.42h5.82c3.01,0,3.92,1.09,2.83,3.42Zm-4.74-.96h-4.31c-.89,0-1.36.26-1.67.98l-1.07,2.25h6.81l1.08-2.25c.31-.72.09-.98-.83-.98Z"/></g></svg>