<svg xmlns="http://www.w3.org/2000/svg" xmlns:xlink="http://www.w3.org/1999/xlink" width="391" height="876" viewBox="0 0 391 876">
  <defs>
    <clipPath id="clip-path">
      <rect id="長方形_2635" data-name="長方形 2635" width="391" height="876" fill="#fff" stroke="#707070" stroke-width="1"/>
    </clipPath>
    <filter id="長方形_2598" x="255.204" y="540.176" width="383.838" height="390.838" filterUnits="userSpaceOnUse">
      <feOffset dx="-2" dy="9" input="SourceAlpha"/>
      <feGaussianBlur result="blur"/>
      <feFlood flood-color="#c3c9ce"/>
      <feComposite operator="in" in2="blur"/>
      <feComposite in="SourceGraphic"/>
    </filter>
    <filter id="長方形_2599" x="-167.634" y="685.081" width="383.838" height="390.838" filterUnits="userSpaceOnUse">
      <feOffset dx="-2" dy="9" input="SourceAlpha"/>
      <feGaussianBlur result="blur-2"/>
      <feFlood flood-color="#c3c9ce"/>
      <feComposite operator="in" in2="blur-2"/>
      <feComposite in="SourceGraphic"/>
    </filter>
    <filter id="長方形_2600" x="-282.465" y="-3.857" width="505.67" height="512.67" filterUnits="userSpaceOnUse">
      <feOffset dx="-2" dy="9" input="SourceAlpha"/>
      <feGaussianBlur result="blur-3"/>
      <feFlood flood-color="#c3c9ce"/>
      <feComposite operator="in" in2="blur-3"/>
      <feComposite in="SourceGraphic"/>
    </filter>
    <filter id="長方形_2601" x="193.001" y="13.213" width="383.838" height="390.838" filterUnits="userSpaceOnUse">
      <feOffset dx="-2" dy="9" input="SourceAlpha"/>
      <feGaussianBlur result="blur-4"/>
      <feFlood flood-color="#c3c9ce"/>
      <feComposite operator="in" in2="blur-4"/>
      <feComposite in="SourceGraphic"/>
    </filter>
    <filter id="長方形_2604" x="-167.635" y="522.354" width="327.458" height="334.458" filterUnits="userSpaceOnUse">
      <feOffset dx="-2" dy="9" input="SourceAlpha"/>
      <feGaussianBlur result="blur-5"/>
      <feFlood flood-color="#c3c9ce"/>
      <feComposite operator="in" in2="blur-5"/>
      <feComposite in="SourceGraphic"/>
    </filter>
    <filter id="長方形_2606" x="-312.194" y="25.54" width="430.46" height="430.46" filterUnits="userSpaceOnUse">
      <feOffset dx="-2" dy="9" input="SourceAlpha"/>
      <feGaussianBlur stdDeviation="3" result="blur-6"/>
      <feFlood flood-color="#c3c9ce"/>
      <feComposite operator="in" in2="blur-6"/>
      <feComposite in="SourceGraphic"/>
    </filter>
    <filter id="長方形_2607" x="189.081" y="566.176" width="399.838" height="399.838" filterUnits="userSpaceOnUse">
      <feOffset dx="-2" dy="9" input="SourceAlpha"/>
      <feGaussianBlur stdDeviation="3" result="blur-7"/>
      <feFlood flood-color="#c3c9ce"/>
      <feComposite operator="in" in2="blur-7"/>
      <feComposite in="SourceGraphic"/>
    </filter>
    <filter id="長方形_2608" x="166.867" y="42.304" width="442.264" height="442.264" filterUnits="userSpaceOnUse">
      <feOffset dx="-2" dy="9" input="SourceAlpha"/>
      <feGaussianBlur stdDeviation="3" result="blur-8"/>
      <feFlood flood-color="#c3c9ce"/>
      <feComposite operator="in" in2="blur-8"/>
      <feComposite in="SourceGraphic"/>
    </filter>
    <filter id="長方形_2609" x="-123.445" y="586.568" width="293.458" height="293.458" filterUnits="userSpaceOnUse">
      <feOffset dx="-2" dy="9" input="SourceAlpha"/>
      <feGaussianBlur stdDeviation="3" result="blur-9"/>
      <feFlood flood-color="#c3c9ce"/>
      <feComposite operator="in" in2="blur-9"/>
      <feComposite in="SourceGraphic"/>
    </filter>
    <filter id="長方形_2602" x="160.035" y="379.165" width="369.929" height="369.929" filterUnits="userSpaceOnUse">
      <feOffset dx="-2" dy="9" input="SourceAlpha"/>
      <feGaussianBlur stdDeviation="3" result="blur-10"/>
      <feFlood flood-color="#c3c9ce"/>
      <feComposite operator="in" in2="blur-10"/>
      <feComposite in="SourceGraphic"/>
    </filter>
    <filter id="長方形_2611" x="-186.965" y="302.604" width="369.929" height="369.929" filterUnits="userSpaceOnUse">
      <feOffset dx="-2" dy="9" input="SourceAlpha"/>
      <feGaussianBlur stdDeviation="3" result="blur-11"/>
      <feFlood flood-color="#c3c9ce"/>
      <feComposite operator="in" in2="blur-11"/>
      <feComposite in="SourceGraphic"/>
    </filter>
    <filter id="長方形_2612" x="240.692" y="-221.618" width="296.618" height="303.618" filterUnits="userSpaceOnUse">
      <feOffset dx="-2" dy="9" input="SourceAlpha"/>
      <feGaussianBlur result="blur-12"/>
      <feFlood flood-color="#c3c9ce"/>
      <feComposite operator="in" in2="blur-12"/>
      <feComposite in="SourceGraphic"/>
    </filter>
  </defs>
  <g id="マスクグループ_1" data-name="マスクグループ 1" clip-path="url(#clip-path)">
    <g transform="matrix(1, 0, 0, 1, 0, 0)" filter="url(#長方形_2598)">
      <rect id="長方形_2598-2" data-name="長方形 2598" width="164" height="376" rx="82" transform="translate(523.08 540.18) rotate(45)" fill="#d4d8dc"/>
    </g>
    <g transform="matrix(1, 0, 0, 1, 0, 0)" filter="url(#長方形_2599)">
      <rect id="長方形_2599-2" data-name="長方形 2599" width="164" height="376" rx="82" transform="translate(100.24 685.08) rotate(45)" fill="#d4d8dc"/>
    </g>
    <g transform="matrix(1, 0, 0, 1, 0, 0)" filter="url(#長方形_2600)">
      <rect id="長方形_2600-2" data-name="長方形 2600" width="188.878" height="523.419" rx="94.439" transform="translate(89.65 -3.86) rotate(45)" fill="#d4d8dc"/>
    </g>
    <g transform="matrix(1, 0, 0, 1, 0, 0)" filter="url(#長方形_2601)">
      <rect id="長方形_2601-2" data-name="長方形 2601" width="164" height="376" rx="82" transform="translate(460.87 13.21) rotate(45)" fill="#d4d8dc"/>
    </g>
    <g transform="matrix(1, 0, 0, 1, 0, 0)" filter="url(#長方形_2604)">
      <rect id="長方形_2604-2" data-name="長方形 2604" width="93.355" height="366.912" rx="46.677" transform="translate(93.81 522.35) rotate(45)" fill="#d4d8dc"/>
    </g>
    <g transform="matrix(1, 0, 0, 1, 0, 0)" filter="url(#長方形_2606)">
      <g id="長方形_2606-2" data-name="長方形 2606" transform="translate(-35.32 25.54) rotate(45)" fill="none" stroke="#445560" stroke-width="0.8" opacity="0.3">
        <rect width="207.306" height="376" rx="103.653" stroke="none"/>
        <rect x="0.4" y="0.4" width="206.506" height="375.2" rx="103.253" fill="none"/>
      </g>
    </g>
    <g transform="matrix(1, 0, 0, 1, 0, 0)" filter="url(#長方形_2607)">
      <g id="長方形_2607-2" data-name="長方形 2607" transform="translate(465.95 566.18) rotate(45)" fill="none" stroke="#445560" stroke-width="0.8" opacity="0.3">
        <rect width="164" height="376" rx="82" stroke="none"/>
        <rect x="0.4" y="0.4" width="163.2" height="375.2" rx="81.6" fill="none"/>
      </g>
    </g>
    <g transform="matrix(1, 0, 0, 1, 0, 0)" filter="url(#長方形_2608)">
      <g id="長方形_2608-2" data-name="長方形 2608" transform="translate(486.17 42.3) rotate(45)" fill="none" stroke="#445560" stroke-width="0.8" opacity="0.3">
        <rect width="164" height="436" rx="82" stroke="none"/>
        <rect x="0.4" y="0.4" width="163.2" height="435.2" rx="81.6" fill="none"/>
      </g>
    </g>
    <g transform="matrix(1, 0, 0, 1, 0, 0)" filter="url(#長方形_2609)">
      <g id="長方形_2609-2" data-name="長方形 2609" transform="translate(90.85 586.57) rotate(45)" fill="none" stroke="#445560" stroke-width="0.8" opacity="0.3">
        <rect width="102.052" height="287.505" rx="51" stroke="none"/>
        <rect x="0.4" y="0.4" width="101.252" height="286.705" rx="50.6" fill="none"/>
      </g>
    </g>
    <g transform="matrix(1, 0, 0, 1, 0, 0)" filter="url(#長方形_2602)">
      <rect id="長方形_2602-2" data-name="長方形 2602" width="109.437" height="388.266" rx="54.719" transform="translate(445.58 379.17) rotate(45)" fill="#d4d8dc" opacity="0.7"/>
    </g>
    <g transform="matrix(1, 0, 0, 1, 0, 0)" filter="url(#長方形_2611)">
      <rect id="長方形_2611-2" data-name="長方形 2611" width="109.437" height="388.266" rx="54.719" transform="translate(98.58 302.6) rotate(45)" fill="#d4d8dc" opacity="0.7"/>
    </g>
    <g transform="matrix(1, 0, 0, 1, 0, 0)" filter="url(#長方形_2612)">
      <rect id="長方形_2612-2" data-name="長方形 2612" width="129.148" height="287.505" rx="64.574" transform="translate(445.99 -221.62) rotate(45)" fill="#d4d8dc"/>
    </g>
  </g>
</svg>
